<svg width="40" height="40" viewBox="0 0 40 40" fill="none" xmlns="http://www.w3.org/2000/svg">
<path d="M25.0258 16.8624L25.0258 13.7249L25.0258 4.32824C25.0258 3.79727 24.8006 3.33065 24.4628 2.99276C24.109 2.65487 23.6265 2.42961 23.1279 2.42961L16.8714 2.4296C16.3406 2.4296 15.8742 2.65487 15.5364 2.99276C15.1987 3.33065 14.9735 3.81336 14.9735 4.32824L14.9735 13.7249C14.9735 14.4007 14.4106 14.9638 13.735 14.9638L4.3422 14.9638C3.81144 14.9638 3.34501 15.1891 3.00725 15.527C2.6695 15.8649 2.44433 16.3315 2.44433 16.8624L2.44432 23.1215C2.44432 23.6364 2.6695 24.103 3.00725 24.457C3.34501 24.7949 3.81144 25.0201 4.3422 25.0201L11.6924 25.0201L11.6924 27.498L4.35828 27.498C3.152 27.498 2.05832 26.9992 1.2863 26.2108C0.498203 25.4224 -0.000390768 24.3283 -0.000390679 23.1376L-0.000390212 16.8785C-0.000390122 15.6718 0.498204 14.5776 1.2863 13.8053C2.05832 13.0169 3.16809 12.5181 4.35828 12.5181L12.5127 12.5181L12.5127 4.36042C12.5127 3.15366 13.0113 2.07562 13.7994 1.2872C14.5714 0.498788 15.6812 -6.93181e-06 16.8714 -6.80985e-06L23.1279 -6.1687e-06C24.3342 -6.04509e-06 25.4118 0.482698 26.1999 1.2872C26.988 2.07562 27.4866 3.16975 27.4866 4.36042L27.4866 13.7571L27.4866 16.8946C27.4866 19.823 26.2803 22.4779 24.3503 24.3926C22.4363 26.3234 19.7825 27.5302 16.8553 27.5302L15.7777 27.5302L15.7777 25.0523L16.8553 25.0523C19.0909 25.0523 21.1335 24.1191 22.6132 22.6549C24.0929 21.1424 25.0258 19.099 25.0258 16.8624Z" fill="#00E1F0"/>
<path d="M14.9738 23.1215L14.9738 26.259L14.9738 35.6396C14.9738 36.1705 15.199 36.6372 15.5368 36.9751C15.8745 37.329 16.3409 37.5382 16.8717 37.5382L23.1282 37.5382C23.6429 37.5382 24.1094 37.329 24.4632 36.9751C24.8009 36.6372 25.0261 36.1706 25.0261 35.6396L25.0261 26.259C25.0261 25.5672 25.573 25.0201 26.2646 25.0201L35.6413 25.0201C36.1721 25.0201 36.6385 24.7948 36.9763 24.4569C37.3301 24.103 37.5392 23.6203 37.5392 23.1215L37.5392 16.8624C37.5392 16.3314 37.3301 15.8648 36.9763 15.5269C36.6385 15.189 36.1721 14.9638 35.6413 14.9638L28.3233 14.9638L28.3233 12.4859L35.6413 12.4859C36.8476 12.4859 37.9413 12.9686 38.7294 13.7731C39.5014 14.5615 40 15.6556 40 16.8624L40 23.1215C40 24.3282 39.5014 25.4063 38.7294 26.1947C37.9413 26.9831 36.8315 27.4819 35.6413 27.4819L27.503 27.4819L27.503 35.6396C27.503 36.8624 27.0205 37.9405 26.2163 38.7289C25.4121 39.5012 24.3345 40 23.1282 40L16.8717 40C15.6654 40 14.5717 39.5012 13.7997 38.7289C13.0116 37.9405 12.513 36.8463 12.513 35.6396L12.513 26.259L12.513 23.1215C12.513 20.1931 13.7032 17.5382 15.6333 15.6074C17.5633 13.6766 20.2171 12.4859 23.1443 12.4859L24.2059 12.4859L24.2059 14.9638L23.1443 14.9638C20.8926 14.9638 18.8661 15.8809 17.3703 17.3612C15.8906 18.8415 14.9738 20.8688 14.9738 23.1215Z" fill="#0065FF"/>
</svg>
